La leggenda del pianista sull'oceano - The Legend of 1900 [BDRip-720p-Mkv-Ita/Eng/-Ac3-Sub-Ita/Eng][Nautilus-BT]




General
Complete name                    : E:\La leggenda del pianista sull'oceano - The Legend of 1900 [BDRip-720p-Ita-Eng-Sub-Ita-Eng-Chapters][RiP By MaX].mkv
Format                           : Matroska
File size                        : 4.38 GiB
Duration                         : 2h 49mn
Overall bit rate                 : 3 691 Kbps
Encoded date                     : UTC 2011-02-18 11:52:19
Writing application              : mkvmerge v4.5.0 ('Speed of Light') built on Feb  1 2011 02:10:32
Writing library                  : libebml v1.2.0 + libmatroska v1.1.0

Video
ID                               : 1
Format                           : AVC
Format/Info                      : Advanced Video Codec
Format profile                   : High@L4.1
Format settings, CABAC           : Yes
Format settings, ReFrames        : 5 frames
Format settings, GOP             : M=3, N=4
Muxing mode                      : Container profile=Unknown@4.1
Codec ID                         : V_MPEG4/ISO/AVC
Duration                         : 2h 49mn
Bit rate                         : 3 183 Kbps
Width                            : 1 280 pixels
Height                           : 536 pixels
Display aspect ratio             : 2.35:1
Frame rate                       : 23.976 fps
Color space                      : YUV
Chroma subsampling               : 4:2:0
Bit depth                        : 8 bits
Scan type                        : Progressive
Bits/(Pixel*Frame)               : 0.194
Stream size                      : 3.68 GiB (84%)
Title                            : La leggenda del pianista sull'oceano [BDRip 720p][RiP By MaX]
Writing library                  : x264 core 114 r1900 60ef1f8
Encoding settings                : cabac=1 / ref=5 / deblock=1:0:0 / analyse=0x3:0x133 / me=hex / subme=7 / psy=1 / psy_rd=1.00:0.00 / mixed_ref=1 / me_range=16 / chroma_me=1 / trellis=1 / 8x8dct=1 / cqm=0 / deadzone=21,11 / fast_pskip=0 / chroma_qp_offset=-2 / threads=6 / sliced_threads=0 / nr=0 / decimate=0 / interlaced=0 / constrained_intra=0 / bframes=3 / b_pyramid=2 / b_adapt=2 / b_bias=0 / direct=3 / weightb=1 / open_gop=0 / weightp=1 / keyint=240 / keyint_min=23 / scenecut=40 / intra_refresh=0 / rc_lookahead=40 / rc=2pass / mbtree=1 / bitrate=3183 / ratetol=1.0 / qcomp=0.60 / qpmin=10 / qpmax=51 / qpstep=4 / cplxblur=20.0 / qblur=0.5 / ip_ratio=1.40 / aq=1:1.00
Language                         : Italian

Audio #1
ID                               : 2
Format                           : AC-3
Format/Info                      : Audio Coding 3
Mode extension                   : CM (complete main)
Codec ID                         : A_AC3
Duration                         : 2h 49mn
Bit rate mode                    : Constant
Bit rate                         : 256 Kbps
Channel(s)                       : 6 channels
Channel positions                : Front: L C R, Side: L R, LFE
Sampling rate                    : 48.0 KHz
Bit depth                        : 16 bits
Video delay                      : 4ms
Stream size                      : 311 MiB (7%)
Title                            : Ita Ac3 5.1
Language                         : Italian

Audio #2
ID                               : 3
Format                           : AC-3
Format/Info                      : Audio Coding 3
Mode extension                   : CM (complete main)
Codec ID                         : A_AC3
Duration                         : 2h 49mn
Bit rate mode                    : Constant
Bit rate                         : 256 Kbps
Channel(s)                       : 6 channels
Channel positions                : Front: L C R, Side: L R, LFE
Sampling rate                    : 48.0 KHz
Bit depth                        : 16 bits
Video delay                      : 4ms
Stream size                      : 311 MiB (7%)
Title                            : Eng Ac3 5.1

Text #1
ID                               : 4
Format                           : UTF-8
Codec ID                         : S_TEXT/UTF8
Codec ID/Info                    : UTF-8 Plain Text
Title                            : Sub Ita Forced
Language                         : Italian

Text #2
ID                               : 5
Format                           : UTF-8
Codec ID                         : S_TEXT/UTF8
Codec ID/Info                    : UTF-8 Plain Text
Title                            : Sub Ita
Language                         : Italian

Text #3
ID                               : 6
Format                           : UTF-8
Codec ID                         : S_TEXT/UTF8
Codec ID/Info                    : UTF-8 Plain Text
Title                            : Sub Ita NU
Language                         : Italian

Text #4
ID                               : 7
Format                           : UTF-8
Codec ID                         : S_TEXT/UTF8
Codec ID/Info                    : UTF-8 Plain Text
Title                            : Sub Eng Forced

Text #5
ID                               : 8
Format                           : UTF-8
Codec ID                         : S_TEXT/UTF8
Codec ID/Info                    : UTF-8 Plain Text
Title                            : Sub Eng

Menu
00:00:00.000                     : :01
00:10:47.897                     : :02
00:14:25.740                     : :03
00:16:17.393                     : :04
00:45:45.034                     : :05
01:13:41.834                     : :06
01:24:49.042                     : :07
01:49:14.840                     : :08
01:58:17.799                     : :09
02:14:01.617                     : :10
02:26:44.421                     : :11
02:40:58.691                     : :12
